<mxfile host="app.diagrams.net" agent="Mozilla/5.0 (Windows NT 10.0; Win64; x64) AppleWebKit/537.36 (KHTML, like Gecko) Chrome/133.0.0.0 Safari/537.36 Edg/133.0.0.0" version="26.0.14">
  <diagram name="Page-1" id="Twix1j4v1TuhYo1zPyAs">
    <mxGraphModel dx="786" dy="1602" grid="1" gridSize="10" guides="1" tooltips="1" connect="1" arrows="1" fold="1" page="1" pageScale="1" pageWidth="850" pageHeight="1100" math="0" shadow="0">
      <root>
        <mxCell id="0" />
        <mxCell id="1" parent="0" />
        <mxCell id="J-WqBKO58Got3NfuCLBK-5" value="Diagram Capitalize" style="swimlane;html=1;childLayout=stackLayout;resizeParent=1;resizeParentMax=0;startSize=20;whiteSpace=wrap;" vertex="1" parent="1">
          <mxGeometry x="220" y="-80" width="510" height="790" as="geometry" />
        </mxCell>
        <mxCell id="J-WqBKO58Got3NfuCLBK-6" value="Pemohon" style="swimlane;html=1;startSize=20;" vertex="1" parent="J-WqBKO58Got3NfuCLBK-5">
          <mxGeometry y="20" width="270" height="770" as="geometry" />
        </mxCell>
        <mxCell id="J-WqBKO58Got3NfuCLBK-9" value="Permintaan pembelian aset" style="points=[[0.145,0.145,0],[0.5,0,0],[0.855,0.145,0],[1,0.5,0],[0.855,0.855,0],[0.5,1,0],[0.145,0.855,0],[0,0.5,0]];shape=mxgraph.bpmn.event;html=1;verticalLabelPosition=bottom;labelBackgroundColor=#ffffff;verticalAlign=top;align=center;perimeter=ellipsePerimeter;outlineConnect=0;aspect=fixed;outline=standard;symbol=general;" vertex="1" parent="J-WqBKO58Got3NfuCLBK-6">
          <mxGeometry x="60" y="30" width="50" height="50" as="geometry" />
        </mxCell>
        <mxCell id="J-WqBKO58Got3NfuCLBK-31" style="edgeStyle=orthogonalEdgeStyle;rounded=0;orthogonalLoop=1;jettySize=auto;html=1;" edge="1" parent="J-WqBKO58Got3NfuCLBK-6" source="J-WqBKO58Got3NfuCLBK-21" target="J-WqBKO58Got3NfuCLBK-29">
          <mxGeometry relative="1" as="geometry" />
        </mxCell>
        <mxCell id="J-WqBKO58Got3NfuCLBK-21" value="Pembelian Kapitalisasi" style="points=[[0.25,0,0],[0.5,0,0],[0.75,0,0],[1,0.25,0],[1,0.5,0],[1,0.75,0],[0.75,1,0],[0.5,1,0],[0.25,1,0],[0,0.75,0],[0,0.5,0],[0,0.25,0]];shape=mxgraph.bpmn.task2;whiteSpace=wrap;rectStyle=rounded;size=10;html=1;container=1;expand=0;collapsible=0;taskMarker=abstract;" vertex="1" parent="J-WqBKO58Got3NfuCLBK-6">
          <mxGeometry x="20" y="290" width="100" height="65" as="geometry" />
        </mxCell>
        <mxCell id="J-WqBKO58Got3NfuCLBK-22" value="Pembelian Non-kapitalisasi" style="points=[[0.25,0,0],[0.5,0,0],[0.75,0,0],[1,0.25,0],[1,0.5,0],[1,0.75,0],[0.75,1,0],[0.5,1,0],[0.25,1,0],[0,0.75,0],[0,0.5,0],[0,0.25,0]];shape=mxgraph.bpmn.task2;whiteSpace=wrap;rectStyle=rounded;size=10;html=1;container=1;expand=0;collapsible=0;taskMarker=abstract;" vertex="1" parent="J-WqBKO58Got3NfuCLBK-6">
          <mxGeometry x="135" y="290" width="100" height="65" as="geometry" />
        </mxCell>
        <mxCell id="J-WqBKO58Got3NfuCLBK-29" value="Pelabelan dan Inventarisasi" style="points=[[0.25,0,0],[0.5,0,0],[0.75,0,0],[1,0.25,0],[1,0.5,0],[1,0.75,0],[0.75,1,0],[0.5,1,0],[0.25,1,0],[0,0.75,0],[0,0.5,0],[0,0.25,0]];shape=mxgraph.bpmn.task2;whiteSpace=wrap;rectStyle=rounded;size=10;html=1;container=1;expand=0;collapsible=0;taskMarker=abstract;" vertex="1" parent="J-WqBKO58Got3NfuCLBK-6">
          <mxGeometry x="20" y="420" width="100" height="65" as="geometry" />
        </mxCell>
        <mxCell id="J-WqBKO58Got3NfuCLBK-7" value="Departemen Pembelian" style="swimlane;html=1;startSize=20;" vertex="1" parent="J-WqBKO58Got3NfuCLBK-5">
          <mxGeometry x="270" y="20" width="240" height="770" as="geometry" />
        </mxCell>
        <mxCell id="J-WqBKO58Got3NfuCLBK-17" style="edgeStyle=orthogonalEdgeStyle;rounded=0;orthogonalLoop=1;jettySize=auto;html=1;" edge="1" parent="J-WqBKO58Got3NfuCLBK-7" source="J-WqBKO58Got3NfuCLBK-10" target="J-WqBKO58Got3NfuCLBK-11">
          <mxGeometry relative="1" as="geometry" />
        </mxCell>
        <mxCell id="J-WqBKO58Got3NfuCLBK-10" value="Verifikasi jenis aset" style="points=[[0.25,0,0],[0.5,0,0],[0.75,0,0],[1,0.25,0],[1,0.5,0],[1,0.75,0],[0.75,1,0],[0.5,1,0],[0.25,1,0],[0,0.75,0],[0,0.5,0],[0,0.25,0]];shape=mxgraph.bpmn.task2;whiteSpace=wrap;rectStyle=rounded;size=10;html=1;container=1;expand=0;collapsible=0;taskMarker=abstract;" vertex="1" parent="J-WqBKO58Got3NfuCLBK-7">
          <mxGeometry x="70" y="30" width="100" height="65" as="geometry" />
        </mxCell>
        <mxCell id="J-WqBKO58Got3NfuCLBK-11" value="" style="points=[[0.25,0.25,0],[0.5,0,0],[0.75,0.25,0],[1,0.5,0],[0.75,0.75,0],[0.5,1,0],[0.25,0.75,0],[0,0.5,0]];shape=mxgraph.bpmn.gateway2;html=1;verticalLabelPosition=bottom;labelBackgroundColor=#ffffff;verticalAlign=top;align=center;perimeter=rhombusPerimeter;outlineConnect=0;outline=end;symbol=general;" vertex="1" parent="J-WqBKO58Got3NfuCLBK-7">
          <mxGeometry x="95" y="110" width="50" height="50" as="geometry" />
        </mxCell>
        <mxCell id="J-WqBKO58Got3NfuCLBK-13" value="Kapitalisasi" style="points=[[0.25,0,0],[0.5,0,0],[0.75,0,0],[1,0.25,0],[1,0.5,0],[1,0.75,0],[0.75,1,0],[0.5,1,0],[0.25,1,0],[0,0.75,0],[0,0.5,0],[0,0.25,0]];shape=mxgraph.bpmn.task2;whiteSpace=wrap;rectStyle=rounded;size=10;html=1;container=1;expand=0;collapsible=0;taskMarker=abstract;" vertex="1" parent="J-WqBKO58Got3NfuCLBK-7">
          <mxGeometry x="15" y="170" width="100" height="65" as="geometry" />
        </mxCell>
        <mxCell id="J-WqBKO58Got3NfuCLBK-12" value="Non-kapitalisasi" style="points=[[0.25,0,0],[0.5,0,0],[0.75,0,0],[1,0.25,0],[1,0.5,0],[1,0.75,0],[0.75,1,0],[0.5,1,0],[0.25,1,0],[0,0.75,0],[0,0.5,0],[0,0.25,0]];shape=mxgraph.bpmn.task2;whiteSpace=wrap;rectStyle=rounded;size=10;html=1;container=1;expand=0;collapsible=0;taskMarker=abstract;" vertex="1" parent="J-WqBKO58Got3NfuCLBK-7">
          <mxGeometry x="130" y="170" width="100" height="65" as="geometry" />
        </mxCell>
        <mxCell id="J-WqBKO58Got3NfuCLBK-19" style="edgeStyle=orthogonalEdgeStyle;rounded=0;orthogonalLoop=1;jettySize=auto;html=1;entryX=0.5;entryY=0;entryDx=0;entryDy=0;entryPerimeter=0;" edge="1" parent="J-WqBKO58Got3NfuCLBK-7" source="J-WqBKO58Got3NfuCLBK-11" target="J-WqBKO58Got3NfuCLBK-12">
          <mxGeometry relative="1" as="geometry">
            <Array as="points">
              <mxPoint x="180" y="135" />
            </Array>
          </mxGeometry>
        </mxCell>
        <mxCell id="J-WqBKO58Got3NfuCLBK-20" style="edgeStyle=orthogonalEdgeStyle;rounded=0;orthogonalLoop=1;jettySize=auto;html=1;entryX=0.5;entryY=0;entryDx=0;entryDy=0;entryPerimeter=0;exitX=0;exitY=0.5;exitDx=0;exitDy=0;exitPerimeter=0;" edge="1" parent="J-WqBKO58Got3NfuCLBK-7" source="J-WqBKO58Got3NfuCLBK-11" target="J-WqBKO58Got3NfuCLBK-13">
          <mxGeometry relative="1" as="geometry">
            <Array as="points">
              <mxPoint x="65" y="135" />
            </Array>
          </mxGeometry>
        </mxCell>
        <mxCell id="J-WqBKO58Got3NfuCLBK-36" value="Departemen menerima pembayran" style="points=[[0.25,0,0],[0.5,0,0],[0.75,0,0],[1,0.25,0],[1,0.5,0],[1,0.75,0],[0.75,1,0],[0.5,1,0],[0.25,1,0],[0,0.75,0],[0,0.5,0],[0,0.25,0]];shape=mxgraph.bpmn.task2;whiteSpace=wrap;rectStyle=rounded;size=10;html=1;container=1;expand=0;collapsible=0;taskMarker=abstract;" vertex="1" parent="J-WqBKO58Got3NfuCLBK-7">
          <mxGeometry x="70" y="570" width="100" height="65" as="geometry" />
        </mxCell>
        <mxCell id="J-WqBKO58Got3NfuCLBK-14" style="edgeStyle=orthogonalEdgeStyle;rounded=0;orthogonalLoop=1;jettySize=auto;html=1;entryX=-0.027;entryY=0.395;entryDx=0;entryDy=0;entryPerimeter=0;" edge="1" parent="J-WqBKO58Got3NfuCLBK-5" source="J-WqBKO58Got3NfuCLBK-9" target="J-WqBKO58Got3NfuCLBK-10">
          <mxGeometry relative="1" as="geometry" />
        </mxCell>
        <mxCell id="J-WqBKO58Got3NfuCLBK-23" style="edgeStyle=orthogonalEdgeStyle;rounded=0;orthogonalLoop=1;jettySize=auto;html=1;entryX=0.5;entryY=0;entryDx=0;entryDy=0;entryPerimeter=0;" edge="1" parent="J-WqBKO58Got3NfuCLBK-5" source="J-WqBKO58Got3NfuCLBK-13" target="J-WqBKO58Got3NfuCLBK-21">
          <mxGeometry relative="1" as="geometry" />
        </mxCell>
        <mxCell id="J-WqBKO58Got3NfuCLBK-24" style="edgeStyle=orthogonalEdgeStyle;rounded=0;orthogonalLoop=1;jettySize=auto;html=1;entryX=1.009;entryY=0.474;entryDx=0;entryDy=0;entryPerimeter=0;" edge="1" parent="J-WqBKO58Got3NfuCLBK-5" source="J-WqBKO58Got3NfuCLBK-12" target="J-WqBKO58Got3NfuCLBK-22">
          <mxGeometry relative="1" as="geometry">
            <mxPoint x="240" y="340" as="targetPoint" />
            <Array as="points">
              <mxPoint x="450" y="340" />
              <mxPoint x="260" y="340" />
            </Array>
          </mxGeometry>
        </mxCell>
        <mxCell id="J-WqBKO58Got3NfuCLBK-25" value="" style="points=[[0.25,0.25,0],[0.5,0,0],[0.75,0.25,0],[1,0.5,0],[0.75,0.75,0],[0.5,1,0],[0.25,0.75,0],[0,0.5,0]];shape=mxgraph.bpmn.gateway2;html=1;verticalLabelPosition=bottom;labelBackgroundColor=#ffffff;verticalAlign=top;align=center;perimeter=rhombusPerimeter;outlineConnect=0;outline=end;symbol=general;" vertex="1" parent="1">
          <mxGeometry x="320" y="440" width="50" height="50" as="geometry" />
        </mxCell>
        <mxCell id="J-WqBKO58Got3NfuCLBK-28" style="edgeStyle=orthogonalEdgeStyle;rounded=0;orthogonalLoop=1;jettySize=auto;html=1;" edge="1" parent="1" source="J-WqBKO58Got3NfuCLBK-22" target="J-WqBKO58Got3NfuCLBK-25">
          <mxGeometry relative="1" as="geometry">
            <mxPoint x="405" y="340" as="targetPoint" />
            <Array as="points">
              <mxPoint x="405" y="465" />
            </Array>
          </mxGeometry>
        </mxCell>
        <mxCell id="J-WqBKO58Got3NfuCLBK-33" style="edgeStyle=orthogonalEdgeStyle;rounded=0;orthogonalLoop=1;jettySize=auto;html=1;" edge="1" parent="1" source="J-WqBKO58Got3NfuCLBK-29" target="J-WqBKO58Got3NfuCLBK-25">
          <mxGeometry relative="1" as="geometry">
            <mxPoint x="310" y="470" as="targetPoint" />
            <Array as="points">
              <mxPoint x="290" y="470" />
            </Array>
          </mxGeometry>
        </mxCell>
        <mxCell id="J-WqBKO58Got3NfuCLBK-34" value="Pembayaran aset" style="points=[[0.25,0,0],[0.5,0,0],[0.75,0,0],[1,0.25,0],[1,0.5,0],[1,0.75,0],[0.75,1,0],[0.5,1,0],[0.25,1,0],[0,0.75,0],[0,0.5,0],[0,0.25,0]];shape=mxgraph.bpmn.task2;whiteSpace=wrap;rectStyle=rounded;size=10;html=1;container=1;expand=0;collapsible=0;taskMarker=abstract;" vertex="1" parent="1">
          <mxGeometry x="295" y="510" width="100" height="65" as="geometry" />
        </mxCell>
        <mxCell id="J-WqBKO58Got3NfuCLBK-35" style="edgeStyle=orthogonalEdgeStyle;rounded=0;orthogonalLoop=1;jettySize=auto;html=1;entryX=0.5;entryY=0;entryDx=0;entryDy=0;entryPerimeter=0;" edge="1" parent="1" source="J-WqBKO58Got3NfuCLBK-25" target="J-WqBKO58Got3NfuCLBK-34">
          <mxGeometry relative="1" as="geometry" />
        </mxCell>
        <mxCell id="J-WqBKO58Got3NfuCLBK-37" style="edgeStyle=orthogonalEdgeStyle;rounded=0;orthogonalLoop=1;jettySize=auto;html=1;entryX=0;entryY=0.5;entryDx=0;entryDy=0;entryPerimeter=0;" edge="1" parent="1" source="J-WqBKO58Got3NfuCLBK-34" target="J-WqBKO58Got3NfuCLBK-36">
          <mxGeometry relative="1" as="geometry" />
        </mxCell>
        <mxCell id="J-WqBKO58Got3NfuCLBK-38" value="Proses selesai" style="points=[[0.145,0.145,0],[0.5,0,0],[0.855,0.145,0],[1,0.5,0],[0.855,0.855,0],[0.5,1,0],[0.145,0.855,0],[0,0.5,0]];shape=mxgraph.bpmn.event;html=1;verticalLabelPosition=bottom;labelBackgroundColor=#ffffff;verticalAlign=top;align=center;perimeter=ellipsePerimeter;outlineConnect=0;aspect=fixed;outline=end;symbol=terminate2;" vertex="1" parent="1">
          <mxGeometry x="585" y="630" width="50" height="50" as="geometry" />
        </mxCell>
        <mxCell id="J-WqBKO58Got3NfuCLBK-39" style="edgeStyle=orthogonalEdgeStyle;rounded=0;orthogonalLoop=1;jettySize=auto;html=1;entryX=0.5;entryY=0;entryDx=0;entryDy=0;entryPerimeter=0;" edge="1" parent="1" source="J-WqBKO58Got3NfuCLBK-36" target="J-WqBKO58Got3NfuCLBK-38">
          <mxGeometry relative="1" as="geometry" />
        </mxCell>
      </root>
    </mxGraphModel>
  </diagram>
</mxfile>
